<svg xmlns="http://www.w3.org/2000/svg" viewBox="0 0 318 166" width="318" height="166" role="img" aria-labelledby="title desc">
  <title id="title">Mahana Organizer logo</title>
  <desc id="desc">Black monochrome vector trace of the Mahana Organizer wordmark with floral ornament.</desc>
  <path d="M 10.06 58.25 L 10.64 52.50 L 11.65 49.75 L 13.75 46.19 L 17.81 41.75 L 22.25 38.72 L 24.75 37.61 L 28.75 36.56 L 34.50 36.58 L 37.25 37.62 L 39.95 40.00 L 41.93 43.00 L 43.03 45.75 L 44.06 51.75 L 43.96 59.00 L 44.25 59.73 L 48.68 50.75 L 52.93 45.00 L 57.25 41.58 L 59.75 40.66 L 62.75 40.78 L 64.83 41.75 L 67.00 43.87 L 68.08 45.50 L 70.01 50.75 L 71.16 58.75 L 70.91 76.00 L 71.25 76.84 L 75.65 64.50 L 80.75 52.50 L 84.71 44.75 L 89.85 36.75 L 94.64 31.75 L 97.12 29.75 L 99.25 28.63 L 104.00 28.52 L 106.65 29.75 L 109.09 32.25 L 111.02 36.00 L 112.08 40.00 L 112.66 49.50 L 111.94 72.00 L 110.88 83.00 L 108.50 98.15 L 108.07 103.50 L 107.31 106.75 L 107.04 112.25 L 106.25 117.50 L 106.27 127.75 L 107.39 133.50 L 108.45 136.25 L 110.50 139.70 L 113.04 142.25 L 114.69 143.25 L 120.75 145.28 L 125.39 145.25 L 128.73 144.25 L 132.25 142.35 L 134.50 140.37 L 136.25 138.16 L 138.25 133.88 L 138.28 127.50 L 136.25 122.54 L 134.25 119.52 L 132.58 117.75 L 131.89 116.25 L 132.75 113.83 L 134.25 112.69 L 135.75 112.68 L 137.14 113.50 L 141.03 119.25 L 143.25 124.70 L 147.64 103.50 L 148.51 100.75 L 148.25 100.54 L 144.00 105.80 L 141.25 108.01 L 138.75 109.17 L 136.50 109.37 L 134.25 109.07 L 131.75 107.13 L 129.65 104.00 L 127.83 98.00 L 127.12 93.50 L 126.75 93.20 L 118.25 103.17 L 115.25 105.04 L 113.50 104.99 L 111.67 103.75 L 110.66 102.00 L 110.48 100.25 L 110.69 95.75 L 112.69 88.50 L 115.76 82.50 L 119.50 77.61 L 121.91 75.75 L 124.25 74.67 L 128.50 74.73 L 130.55 75.75 L 133.97 79.00 L 134.00 81.26 L 133.00 82.19 L 131.25 82.36 L 127.40 79.50 L 126.00 79.32 L 124.97 79.50 L 122.50 81.27 L 120.50 83.53 L 117.45 89.50 L 115.45 96.00 L 115.25 99.16 L 116.25 98.48 L 121.49 92.25 L 126.84 84.75 L 128.00 83.70 L 129.00 83.55 L 130.00 83.83 L 131.14 85.00 L 132.50 96.81 L 133.39 100.50 L 135.47 104.25 L 136.75 104.61 L 138.25 104.31 L 139.76 103.25 L 143.25 99.44 L 148.25 91.93 L 152.33 84.25 L 153.80 76.75 L 161.69 44.25 L 166.71 28.50 L 171.81 18.00 L 173.62 15.50 L 176.00 13.61 L 178.50 13.56 L 180.11 15.00 L 180.40 17.75 L 180.08 22.00 L 178.01 28.50 L 174.06 38.25 L 162.50 61.17 L 162.11 64.00 L 161.34 65.75 L 161.06 68.25 L 157.39 82.50 L 152.25 105.01 L 152.50 105.15 L 157.75 96.38 L 160.75 92.84 L 163.50 90.61 L 166.50 89.77 L 169.21 90.75 L 171.20 93.25 L 172.10 96.00 L 172.69 102.00 L 173.50 105.19 L 174.75 106.15 L 176.75 105.26 L 180.37 102.25 L 185.32 96.25 L 196.75 78.97 L 200.25 75.84 L 203.50 74.57 L 207.00 74.71 L 210.25 76.66 L 212.25 78.79 L 212.61 80.25 L 212.37 81.25 L 211.50 82.21 L 209.50 82.27 L 206.00 79.53 L 203.50 79.46 L 201.67 80.75 L 198.41 84.50 L 196.37 88.50 L 194.37 94.50 L 193.57 98.50 L 193.75 99.13 L 198.35 94.25 L 206.00 84.06 L 206.75 83.58 L 208.00 83.59 L 208.75 83.96 L 209.89 85.50 L 210.37 93.00 L 211.39 99.00 L 212.50 101.95 L 214.41 104.50 L 216.85 104.25 L 220.43 101.25 L 225.37 94.25 L 230.39 85.00 L 232.93 76.75 L 233.75 75.50 L 235.25 74.65 L 237.05 75.50 L 237.81 77.25 L 234.97 87.75 L 237.56 84.75 L 240.25 82.57 L 242.75 82.12 L 245.00 82.59 L 246.85 84.25 L 248.09 86.25 L 249.91 90.75 L 251.47 96.00 L 252.61 98.00 L 253.90 99.25 L 255.00 99.40 L 258.17 97.00 L 262.38 91.25 L 268.75 80.29 L 272.30 76.50 L 270.79 74.50 L 269.00 70.77 L 267.75 73.12 L 266.75 73.24 L 266.00 72.82 L 265.25 69.51 L 263.25 66.32 L 262.93 66.50 L 263.96 68.00 L 264.83 71.25 L 264.00 74.75 L 262.43 76.50 L 261.00 79.18 L 260.00 80.09 L 257.75 80.63 L 255.75 81.98 L 254.50 81.99 L 253.75 81.23 L 253.93 75.50 L 252.51 69.25 L 248.98 66.75 L 248.44 65.50 L 247.25 64.22 L 245.00 63.03 L 246.98 69.75 L 246.98 71.50 L 245.75 73.07 L 244.50 73.37 L 239.25 72.88 L 233.00 67.74 L 230.25 63.68 L 228.98 65.00 L 225.25 66.44 L 224.25 67.26 L 223.01 71.75 L 221.00 74.97 L 217.42 78.25 L 216.00 80.31 L 214.50 81.10 L 213.69 80.25 L 212.73 75.50 L 212.79 71.50 L 213.89 65.75 L 212.71 64.00 L 212.56 62.75 L 213.55 60.25 L 211.75 60.35 L 210.00 61.17 L 202.50 61.18 L 199.50 60.16 L 198.84 59.50 L 200.75 56.81 L 204.00 53.92 L 205.84 52.75 L 207.30 52.50 L 208.50 51.74 L 214.00 51.49 L 217.00 51.67 L 218.75 52.51 L 220.68 52.25 L 220.25 51.24 L 216.75 50.83 L 212.75 47.57 L 212.47 45.50 L 210.55 42.50 L 210.63 41.25 L 212.00 38.30 L 211.86 37.00 L 215.25 34.64 L 219.00 33.95 L 220.33 34.25 L 220.50 32.71 L 219.85 30.25 L 220.61 26.75 L 222.25 24.80 L 225.08 22.75 L 229.50 22.63 L 231.00 21.67 L 233.25 21.02 L 237.25 22.60 L 237.50 22.00 L 237.20 18.75 L 237.61 16.50 L 242.00 10.92 L 242.75 10.54 L 244.25 10.62 L 245.14 11.50 L 247.63 12.75 L 250.00 15.43 L 250.75 15.41 L 252.25 14.57 L 254.00 14.78 L 255.75 15.60 L 257.50 15.20 L 260.00 15.68 L 261.75 16.72 L 264.25 16.96 L 266.00 17.63 L 268.87 20.00 L 269.75 22.54 L 274.25 20.69 L 276.61 21.75 L 277.11 22.50 L 277.05 24.25 L 276.00 25.84 L 273.15 27.75 L 273.68 30.50 L 272.27 34.25 L 273.50 35.95 L 275.75 36.47 L 278.25 36.19 L 279.00 36.46 L 279.41 37.25 L 279.35 38.50 L 281.20 41.00 L 281.49 42.75 L 281.10 45.25 L 279.31 48.50 L 279.20 54.50 L 278.07 56.00 L 280.19 58.50 L 280.06 61.25 L 283.00 61.86 L 287.25 63.64 L 288.10 64.25 L 288.21 65.00 L 287.50 66.08 L 284.01 66.50 L 284.34 68.00 L 285.76 70.50 L 285.50 71.13 L 284.75 71.42 L 284.00 71.25 L 283.25 70.27 L 280.25 68.17 L 278.95 68.00 L 275.25 66.43 L 271.77 66.75 L 274.02 70.50 L 274.36 75.25 L 276.75 74.56 L 280.25 74.81 L 282.25 75.87 L 284.20 77.50 L 285.39 79.00 L 285.76 80.50 L 285.00 81.95 L 283.50 82.41 L 282.00 82.04 L 278.75 79.42 L 276.75 79.39 L 274.65 80.75 L 271.50 84.46 L 269.37 88.50 L 267.33 94.75 L 266.75 98.94 L 267.97 98.25 L 270.50 95.31 L 278.75 84.35 L 279.75 83.64 L 281.25 83.63 L 282.95 85.50 L 283.35 93.25 L 284.50 99.00 L 285.46 101.75 L 287.25 104.37 L 289.25 104.49 L 292.27 102.50 L 296.25 97.50 L 303.68 84.75 L 305.25 84.33 L 306.50 84.64 L 307.14 85.25 L 307.45 86.75 L 306.09 90.25 L 302.02 97.50 L 298.09 103.00 L 296.09 105.25 L 292.81 108.00 L 291.00 109.01 L 288.50 109.38 L 285.50 108.96 L 282.75 106.55 L 281.77 105.00 L 279.78 100.00 L 279.34 96.75 L 278.25 92.97 L 271.01 102.00 L 268.75 103.99 L 267.00 104.96 L 265.25 105.05 L 263.50 104.01 L 262.70 103.00 L 261.75 100.24 L 258.35 103.00 L 256.35 104.00 L 252.50 103.93 L 249.88 102.00 L 247.75 99.03 L 246.57 96.50 L 244.36 89.50 L 243.44 87.50 L 242.75 87.10 L 241.42 87.50 L 238.37 91.50 L 233.33 101.25 L 229.02 111.50 L 227.50 112.36 L 225.75 112.03 L 224.62 110.50 L 225.75 102.24 L 221.00 107.09 L 218.00 108.98 L 215.50 109.37 L 213.50 109.22 L 211.00 107.91 L 208.85 105.25 L 207.73 103.00 L 206.73 100.00 L 205.64 93.50 L 205.25 92.92 L 199.95 99.75 L 195.50 104.13 L 193.00 105.13 L 190.75 104.22 L 189.78 103.25 L 188.92 100.00 L 188.50 99.75 L 184.00 105.14 L 178.25 110.02 L 175.75 110.99 L 173.50 110.99 L 170.75 109.36 L 168.82 106.25 L 167.79 102.25 L 167.40 96.75 L 166.50 95.00 L 166.00 94.76 L 163.75 96.53 L 161.50 99.27 L 157.40 105.75 L 152.44 116.00 L 148.38 126.25 L 148.00 128.00 L 147.02 129.75 L 145.25 130.40 L 143.41 129.75 L 143.09 133.75 L 142.00 137.25 L 140.05 140.75 L 138.03 143.25 L 133.69 147.00 L 130.20 149.00 L 123.25 151.00 L 118.50 151.05 L 114.00 150.03 L 111.50 149.02 L 108.00 147.05 L 105.70 145.00 L 103.75 142.69 L 101.72 139.00 L 99.67 132.25 L 98.75 125.00 L 98.78 115.75 L 103.34 79.00 L 104.50 61.00 L 104.29 43.75 L 103.42 37.75 L 101.66 34.50 L 99.50 34.42 L 94.25 39.46 L 90.50 44.90 L 87.42 50.75 L 80.50 66.81 L 76.43 77.50 L 72.09 90.50 L 71.37 91.75 L 66.07 110.50 L 65.00 112.17 L 63.25 113.16 L 60.75 112.78 L 59.75 111.91 L 58.67 109.50 L 60.36 97.25 L 62.41 74.75 L 62.45 52.75 L 61.17 47.75 L 60.41 47.25 L 59.50 47.38 L 56.55 49.50 L 54.50 51.69 L 49.43 59.50 L 45.48 68.50 L 43.30 74.50 L 41.50 80.60 L 41.03 84.25 L 40.46 85.75 L 40.07 89.50 L 39.35 92.00 L 36.07 111.00 L 35.40 112.75 L 34.91 117.00 L 33.99 120.00 L 32.25 121.30 L 30.75 121.52 L 28.94 121.00 L 27.63 119.50 L 27.39 117.50 L 27.90 111.75 L 30.30 98.00 L 30.73 93.50 L 31.42 91.00 L 35.37 60.00 L 35.42 48.75 L 34.36 44.50 L 33.25 43.22 L 31.17 42.25 L 26.50 42.30 L 23.50 43.38 L 20.50 45.37 L 17.50 48.29 L 15.25 52.35 L 14.47 57.00 L 15.50 60.73 L 17.83 63.00 L 19.75 64.02 L 25.25 64.78 L 27.13 65.75 L 28.07 67.00 L 28.17 68.75 L 27.68 69.75 L 26.25 71.01 L 23.75 71.17 L 20.00 70.08 L 14.79 67.00 L 11.56 63.25 L 10.67 61.25 Z M 257.00 36.35 L 257.75 33.90 L 260.50 31.02 L 261.50 27.38 L 261.60 25.25 L 262.17 24.50 L 260.64 24.00 L 260.56 22.25 L 261.00 21.80 L 262.45 21.50 L 263.25 20.62 L 263.25 19.73 L 261.75 19.09 L 260.25 20.32 L 259.96 21.25 L 257.49 24.25 L 259.69 24.75 L 259.62 25.75 L 257.75 27.15 L 256.00 27.25 L 254.84 26.00 L 254.67 25.25 L 258.39 21.00 L 259.75 18.50 L 259.50 17.53 L 258.18 17.00 L 257.25 15.90 L 255.75 16.84 L 253.50 16.33 L 252.23 16.50 L 252.39 19.00 L 253.12 20.25 L 253.32 23.00 L 253.00 24.16 L 252.25 24.40 L 251.69 23.75 L 251.42 20.75 L 250.25 17.95 L 245.50 13.35 L 244.00 12.31 L 243.02 12.50 L 239.31 17.00 L 239.33 22.00 L 240.50 24.85 L 241.00 23.93 L 242.50 23.77 L 243.06 23.00 L 243.75 22.84 L 244.47 24.00 L 243.25 24.75 L 243.25 26.43 L 243.93 26.25 L 244.50 25.39 L 245.25 25.90 L 247.25 26.06 L 248.54 30.50 L 248.25 34.55 L 249.50 32.58 L 250.16 30.50 L 251.00 29.70 L 251.58 29.75 L 251.80 30.50 L 251.21 31.50 L 251.09 33.50 L 249.32 36.00 L 249.00 37.12 L 251.25 35.41 L 252.42 33.75 L 252.71 27.50 L 253.75 26.90 L 254.75 26.97 L 256.12 28.75 L 256.14 31.25 L 253.39 36.25 L 253.75 36.59 Z M 271.25 37.41 L 271.58 36.50 L 270.67 35.25 L 270.68 32.50 L 271.59 31.25 L 271.54 29.50 L 270.50 28.30 L 269.25 27.93 L 268.49 27.25 L 267.62 25.50 L 267.61 21.50 L 266.50 20.35 L 266.00 20.31 L 266.95 24.25 L 265.41 27.50 L 266.04 29.50 L 265.25 31.27 L 265.10 32.75 L 265.50 33.42 L 269.00 35.80 L 270.50 37.37 Z M 262.00 32.50 L 263.04 32.00 L 263.96 30.00 L 264.10 26.75 L 264.61 25.00 L 265.50 24.15 L 264.50 22.45 L 264.08 24.75 L 263.25 26.15 L 262.24 31.25 L 261.68 32.25 Z M 240.85 31.25 L 240.50 29.36 L 239.75 28.56 L 239.44 27.00 L 238.00 24.68 L 235.75 24.00 L 234.25 23.10 L 231.25 23.39 L 230.47 24.75 L 230.50 26.50 L 231.05 27.25 L 235.75 28.64 L 238.50 31.52 Z M 169.25 36.91 L 172.28 30.00 L 174.12 25.00 L 174.25 23.46 L 170.45 31.75 L 169.21 35.50 Z M 227.25 42.08 L 226.74 40.00 L 226.88 38.50 L 225.35 35.50 L 225.52 29.00 L 225.00 26.75 L 225.25 26.25 L 225.83 26.50 L 226.94 28.75 L 227.38 33.00 L 228.25 35.27 L 228.86 33.75 L 230.25 32.89 L 231.79 34.00 L 231.50 35.68 L 232.25 36.01 L 232.54 35.50 L 231.50 31.46 L 228.75 30.17 L 227.82 28.75 L 227.67 27.50 L 228.43 25.00 L 228.00 24.25 L 226.00 24.50 L 223.25 26.38 L 222.28 27.75 L 221.87 31.25 L 222.36 35.25 L 223.09 36.75 L 223.42 38.75 L 224.50 40.32 Z M 240.00 41.71 L 241.38 40.25 L 240.74 38.75 L 242.32 36.75 L 241.94 35.50 L 242.21 34.50 L 240.00 33.76 L 238.75 33.75 L 238.21 34.25 L 237.90 35.75 L 236.38 37.75 L 235.61 40.00 L 236.25 40.42 L 237.50 39.65 Z M 259.25 34.62 L 259.83 39.00 L 259.45 42.25 L 260.25 43.33 L 262.25 41.72 L 264.67 40.75 L 269.00 40.57 L 269.43 40.25 L 269.29 38.25 L 264.25 34.33 L 261.50 34.29 L 260.50 33.71 Z M 223.03 41.50 L 221.74 39.50 L 221.45 37.25 L 220.25 36.18 L 216.50 36.33 L 214.35 37.50 L 216.50 40.44 L 218.25 39.86 L 222.00 41.44 Z M 279.52 41.50 L 277.25 38.66 L 275.50 38.94 L 274.25 38.43 L 273.00 39.75 L 271.55 40.50 L 270.50 42.06 L 265.25 42.22 L 262.75 44.30 L 263.25 45.36 L 265.25 45.04 L 266.07 46.00 L 265.75 46.86 L 264.25 46.66 L 263.44 47.25 L 263.37 47.75 L 266.50 47.65 L 267.01 48.25 L 266.75 48.86 L 264.00 48.96 L 261.75 48.16 L 260.50 49.14 L 258.25 48.90 L 258.08 50.00 L 260.00 51.11 L 265.25 50.70 L 265.75 49.73 L 266.50 49.49 L 267.93 50.75 L 268.50 52.69 L 275.00 52.61 L 277.25 53.89 L 277.64 53.00 L 277.59 47.75 L 279.47 44.50 Z M 221.54 47.50 L 219.75 46.30 L 217.00 45.71 L 216.61 44.75 L 217.00 44.23 L 220.54 44.50 L 217.00 43.06 L 213.89 40.25 L 213.25 40.25 L 212.67 42.00 L 212.92 43.00 L 213.50 43.58 L 215.00 43.94 L 215.39 44.50 L 214.26 45.75 L 214.40 46.50 L 218.75 47.64 Z M 240.48 45.50 L 242.48 44.50 L 244.00 43.10 L 245.31 41.25 L 245.37 40.50 L 243.50 40.48 L 242.25 41.39 L 241.75 42.74 L 240.50 42.96 L 240.81 44.25 Z M 254.25 46.97 L 255.30 44.50 L 255.00 43.74 L 254.50 43.49 L 253.75 44.14 L 253.00 44.12 L 251.50 42.21 L 249.00 41.36 L 247.50 41.35 L 247.57 41.75 L 250.76 43.50 L 253.50 46.65 Z M 250.25 55.40 L 252.52 52.75 L 252.25 52.24 L 251.04 52.00 L 249.96 51.25 L 249.81 50.00 L 252.41 49.50 L 253.05 48.75 L 251.25 46.44 L 249.00 44.69 L 247.00 44.12 L 245.55 44.25 L 243.72 46.25 L 246.25 46.69 L 247.25 47.53 L 248.75 47.98 L 248.96 48.75 L 248.51 50.00 L 249.33 51.50 L 248.25 52.08 L 246.00 50.27 L 243.91 54.50 L 246.00 55.43 Z M 269.89 44.50 L 269.84 45.25 L 269.25 45.86 L 268.00 45.93 L 267.24 45.50 L 267.46 45.00 L 269.25 44.04 Z M 225.50 49.41 L 225.61 48.75 L 224.88 47.50 L 225.65 46.25 L 223.75 45.34 L 221.04 45.00 L 223.79 47.25 L 223.50 47.86 L 222.31 48.25 L 222.50 48.69 L 223.75 49.57 Z M 238.00 53.46 L 239.04 51.75 L 238.81 49.75 L 238.25 48.74 L 236.95 49.50 L 236.20 51.00 L 236.50 52.21 Z M 226.86 49.50 L 227.75 50.01 L 229.76 49.50 L 229.00 48.91 L 227.25 49.09 Z M 232.67 51.75 L 232.25 51.38 L 231.25 52.22 L 228.50 52.39 L 228.00 52.75 L 228.50 53.55 L 229.75 54.11 L 230.75 54.07 L 232.10 53.25 Z M 266.52 55.00 L 266.25 54.10 L 265.00 54.08 L 264.11 53.50 L 264.17 53.00 L 265.13 52.50 L 265.00 52.19 L 263.60 52.50 L 261.50 54.11 L 258.89 54.00 L 260.50 54.82 L 261.25 54.72 L 261.97 56.25 L 262.75 56.57 L 265.25 56.48 Z M 216.33 66.25 L 219.00 66.87 L 222.07 66.50 L 224.00 65.39 L 229.47 60.25 L 231.50 57.00 L 231.59 56.25 L 230.75 56.19 L 229.75 57.03 L 225.25 58.72 L 224.87 58.25 L 225.45 57.00 L 227.00 56.35 L 228.27 55.25 L 226.88 54.25 L 225.60 52.50 L 224.25 52.46 L 220.50 54.39 L 219.09 55.50 L 219.16 58.50 L 218.39 60.25 L 219.25 60.00 L 219.78 60.50 L 219.02 62.00 L 216.32 64.25 Z M 202.26 58.75 L 202.75 59.18 L 205.00 59.40 L 208.25 57.78 L 208.86 58.00 L 208.89 59.00 L 209.25 59.22 L 212.21 58.50 L 213.54 57.00 L 213.64 56.25 L 213.00 55.80 L 210.50 56.19 L 210.77 54.75 L 212.50 53.92 L 217.25 54.50 L 217.62 54.00 L 217.25 53.46 L 212.75 53.10 L 208.97 53.50 L 207.06 54.50 L 208.60 55.00 L 208.50 55.81 L 206.25 56.13 Z M 240.50 63.25 L 241.29 61.50 L 240.69 60.25 L 240.50 58.01 L 239.47 55.50 L 238.25 54.08 L 237.34 55.50 L 237.33 57.00 L 238.03 58.25 L 238.17 60.25 L 239.43 61.00 L 239.50 62.25 Z M 277.50 61.88 L 277.88 59.50 L 277.36 58.50 L 274.00 56.35 L 272.50 56.06 L 271.16 55.25 L 268.50 54.98 L 267.95 56.25 L 266.50 57.85 L 264.00 58.77 L 259.50 58.09 L 258.50 57.41 L 257.39 57.25 L 259.25 60.38 L 260.50 61.39 L 262.75 61.70 L 264.00 62.53 L 266.75 62.91 L 269.50 64.31 L 275.00 64.29 Z M 216.57 57.25 L 216.25 56.16 L 215.41 56.25 L 214.98 56.75 L 215.25 57.66 Z M 241.00 71.27 L 239.78 69.00 L 239.62 67.50 L 237.73 65.50 L 238.41 64.25 L 237.50 63.29 L 236.00 63.10 L 234.77 62.00 L 234.50 58.08 L 233.25 59.45 L 232.48 61.75 L 233.26 65.25 L 235.25 67.35 L 240.34 71.25 Z M 245.11 58.75 L 245.00 58.37 L 243.75 58.00 L 243.33 58.50 L 243.75 59.53 Z M 255.79 65.00 L 255.45 61.75 L 254.50 59.77 L 253.75 61.05 L 253.00 61.33 L 252.51 61.00 L 252.56 59.50 L 252.25 59.28 L 251.50 60.14 L 249.75 59.39 L 248.50 60.14 L 246.50 60.37 L 246.09 60.75 L 246.30 61.50 L 247.50 62.44 L 249.25 61.10 L 249.75 61.21 L 249.88 62.00 L 249.25 63.18 L 249.27 64.00 L 251.46 66.50 L 252.05 66.25 L 252.03 64.50 L 253.25 62.88 L 254.16 63.50 L 254.64 65.25 L 255.25 65.42 Z M 256.50 79.38 L 257.11 78.75 L 259.48 78.25 L 260.75 75.76 L 262.43 74.00 L 262.83 71.50 L 262.49 68.75 L 260.62 66.25 L 260.36 63.50 L 258.25 61.80 L 257.50 60.54 L 257.25 61.59 L 257.62 66.00 L 259.07 70.75 L 258.25 73.00 L 258.03 75.00 L 256.34 79.00 Z M 244.50 70.84 L 244.45 67.75 L 243.25 65.46 L 241.75 64.03 L 241.25 64.01 L 240.25 65.09 L 238.95 64.50 L 240.41 66.50 L 241.75 67.14 Z M 215.50 71.96 L 216.26 71.50 L 217.43 69.50 L 216.87 68.50 L 215.50 67.73 L 215.12 71.00 Z M 216.50 76.74 L 218.41 75.00 L 218.68 74.00 L 218.25 72.73 L 216.25 75.99 Z M 171.55 128.25 L 171.72 125.75 L 172.50 124.60 L 176.50 121.85 L 178.25 121.60 L 179.25 121.74 L 180.97 122.75 L 181.98 124.00 L 182.42 126.00 L 182.15 128.25 L 182.50 128.56 L 183.25 128.40 L 185.30 125.75 L 185.72 123.75 L 183.43 122.00 L 182.82 120.25 L 183.75 118.63 L 186.00 117.63 L 187.00 117.81 L 188.00 118.59 L 188.50 121.56 L 191.00 121.76 L 193.09 123.25 L 193.28 126.00 L 192.57 130.00 L 193.00 130.36 L 194.25 129.08 L 194.83 126.75 L 196.79 124.00 L 198.50 122.69 L 200.75 121.88 L 205.50 121.74 L 207.15 122.75 L 207.16 126.75 L 206.37 130.00 L 206.50 130.77 L 209.15 128.00 L 210.74 125.25 L 213.75 122.62 L 217.50 121.72 L 220.89 122.75 L 222.01 124.75 L 221.28 129.75 L 221.75 130.45 L 223.25 129.16 L 225.18 125.75 L 225.38 124.75 L 224.55 123.25 L 225.00 121.96 L 226.75 121.86 L 227.98 122.75 L 228.50 123.79 L 230.00 122.56 L 232.00 121.68 L 234.00 122.61 L 234.69 124.25 L 234.09 130.00 L 234.50 130.40 L 236.29 128.25 L 239.37 123.25 L 238.69 122.50 L 238.83 121.50 L 239.52 120.75 L 240.75 120.53 L 241.76 120.75 L 242.24 122.00 L 241.76 123.00 L 240.80 123.50 L 241.23 125.00 L 240.41 130.00 L 241.00 130.37 L 242.38 129.25 L 244.49 125.75 L 244.25 125.12 L 242.60 123.75 L 242.57 122.00 L 243.50 120.82 L 245.50 120.38 L 247.00 120.80 L 247.51 123.50 L 256.50 123.63 L 257.75 124.03 L 257.84 124.75 L 257.25 125.43 L 251.50 128.45 L 250.54 129.25 L 250.75 129.53 L 253.75 129.23 L 257.25 129.60 L 259.27 127.25 L 260.75 124.71 L 262.73 122.75 L 265.00 121.70 L 266.75 121.79 L 267.99 123.00 L 267.92 124.25 L 266.59 126.00 L 265.25 126.98 L 263.55 127.50 L 262.45 128.75 L 262.96 130.25 L 265.00 130.49 L 267.11 129.25 L 268.25 128.02 L 270.50 124.02 L 270.30 123.25 L 267.75 121.92 L 267.50 120.50 L 268.17 118.75 L 270.75 117.65 L 271.75 117.85 L 272.89 119.00 L 273.25 121.49 L 275.75 121.85 L 277.17 122.75 L 277.92 123.75 L 278.13 125.75 L 277.29 128.50 L 277.25 130.37 L 277.86 130.25 L 279.43 128.25 L 281.26 124.75 L 282.50 124.24 L 283.12 125.25 L 280.00 130.74 L 277.75 132.90 L 276.75 133.21 L 275.00 132.87 L 273.63 131.00 L 273.62 128.25 L 274.50 125.00 L 274.51 123.50 L 274.00 123.14 L 272.50 123.62 L 271.12 127.00 L 269.00 130.12 L 266.95 132.00 L 264.25 133.11 L 262.00 132.90 L 260.25 131.95 L 259.25 130.57 L 258.89 131.25 L 259.03 132.50 L 258.50 133.02 L 256.00 132.83 L 254.50 131.39 L 251.45 131.25 L 248.50 132.27 L 246.00 134.37 L 245.00 134.53 L 244.34 133.50 L 244.78 131.50 L 246.75 129.00 L 250.97 125.75 L 247.75 125.43 L 246.50 125.88 L 244.17 130.00 L 242.32 132.00 L 240.75 132.94 L 239.25 132.97 L 237.75 131.77 L 237.25 130.85 L 234.75 133.03 L 232.50 133.13 L 230.60 131.00 L 230.67 128.00 L 231.52 124.75 L 231.00 124.23 L 229.44 125.75 L 227.10 131.75 L 225.75 132.95 L 225.00 132.91 L 223.75 131.67 L 221.75 133.02 L 220.25 133.02 L 218.82 131.50 L 218.25 129.68 L 215.52 132.00 L 213.00 133.08 L 211.25 132.96 L 209.25 130.87 L 206.04 133.75 L 203.05 145.00 L 200.10 151.00 L 197.25 154.06 L 195.50 155.08 L 193.75 155.27 L 191.00 155.08 L 188.72 153.00 L 188.01 150.00 L 188.61 146.50 L 189.81 144.25 L 192.75 140.92 L 202.40 133.50 L 202.77 130.25 L 200.47 132.00 L 198.00 133.05 L 196.50 133.05 L 194.50 131.89 L 192.75 133.11 L 190.75 133.03 L 189.63 132.00 L 189.02 130.25 L 189.95 124.00 L 189.75 123.42 L 189.00 123.12 L 188.17 123.50 L 187.00 126.55 L 185.00 129.10 L 182.00 130.89 L 180.25 131.25 L 177.50 133.09 L 175.25 133.07 L 173.37 132.00 L 171.85 130.00 Z M 178.25 129.54 L 179.32 128.00 L 179.46 124.75 L 178.50 123.44 L 177.75 123.22 L 175.38 124.50 L 175.50 127.23 L 176.31 128.25 Z M 197.39 130.50 L 199.00 130.39 L 200.47 129.25 L 202.29 127.25 L 203.48 124.50 L 200.50 124.39 L 198.70 125.75 L 197.30 127.75 L 197.10 130.00 Z M 212.43 130.50 L 214.00 130.47 L 215.50 129.33 L 217.26 127.25 L 218.54 124.50 L 215.50 124.40 L 213.75 125.82 L 212.42 127.75 L 212.16 129.75 Z M 191.75 153.11 L 194.00 153.21 L 196.00 152.25 L 197.30 151.00 L 200.25 144.55 L 202.16 136.25 L 200.36 137.25 L 193.54 142.50 L 191.50 145.35 L 190.50 147.84 L 190.21 150.00 L 190.50 152.00 Z" fill="#faf3ec" fill-rule="evenodd"/>
</svg>
